<svg xmlns="http://www.w3.org/2000/svg" xmlns:xlink="http://www.w3.org/1999/xlink" width="500" zoomAndPan="magnify" viewBox="0 0 375 374.999991" height="500" preserveAspectRatio="xMidYMid meet" version="1.0"><defs><clipPath id="0e83e2ccbf"><path d="M 187.5 0 C 83.945312 0 0 83.945312 0 187.5 C 0 291.054688 83.945312 375 187.5 375 C 291.054688 375 375 291.054688 375 187.5 C 375 83.945312 291.054688 0 187.5 0 Z M 187.5 0 " clip-rule="nonzero"/></clipPath><clipPath id="208ea54681"><path d="M 0 0 L 375 0 L 375 375 L 0 375 Z M 0 0 " clip-rule="nonzero"/></clipPath><clipPath id="853d2c02c1"><path d="M 187.5 0 C 83.945312 0 0 83.945312 0 187.5 C 0 291.054688 83.945312 375 187.5 375 C 291.054688 375 375 291.054688 375 187.5 C 375 83.945312 291.054688 0 187.5 0 Z M 187.5 0 " clip-rule="nonzero"/></clipPath><clipPath id="f762788f63"><rect x="0" width="375" y="0" height="375"/></clipPath><clipPath id="c01b11b482"><path d="M 28.402344 22.65625 L 362.351562 22.65625 L 362.351562 356.605469 L 28.402344 356.605469 Z M 28.402344 22.65625 " clip-rule="nonzero"/></clipPath><clipPath id="b8ed9d781a"><path d="M 195.375 22.65625 C 103.160156 22.65625 28.402344 97.414062 28.402344 189.628906 C 28.402344 281.847656 103.160156 356.605469 195.375 356.605469 C 287.59375 356.605469 362.351562 281.847656 362.351562 189.628906 C 362.351562 97.414062 287.59375 22.65625 195.375 22.65625 Z M 195.375 22.65625 " clip-rule="nonzero"/></clipPath><clipPath id="c9fa25de51"><path d="M 0.402344 0.65625 L 334.351562 0.65625 L 334.351562 334.605469 L 0.402344 334.605469 Z M 0.402344 0.65625 " clip-rule="nonzero"/></clipPath><clipPath id="e2c1ac4ff5"><path d="M 167.375 0.65625 C 75.160156 0.65625 0.402344 75.414062 0.402344 167.628906 C 0.402344 259.847656 75.160156 334.605469 167.375 334.605469 C 259.59375 334.605469 334.351562 259.847656 334.351562 167.628906 C 334.351562 75.414062 259.59375 0.65625 167.375 0.65625 Z M 167.375 0.65625 " clip-rule="nonzero"/></clipPath><clipPath id="ce93b47154"><rect x="0" width="335" y="0" height="335"/></clipPath><clipPath id="049c4e0fc5"><path d="M 70.441406 46.875 L 362.640625 46.875 L 362.640625 332.382812 L 70.441406 332.382812 Z M 70.441406 46.875 " clip-rule="nonzero"/></clipPath><clipPath id="83223db2aa"><path d="M 216.394531 46.875 C 135.785156 46.875 70.441406 110.789062 70.441406 189.628906 C 70.441406 268.46875 135.785156 332.382812 216.394531 332.382812 C 297.003906 332.382812 362.351562 268.46875 362.351562 189.628906 C 362.351562 110.789062 297.003906 46.875 216.394531 46.875 Z M 216.394531 46.875 " clip-rule="nonzero"/></clipPath><clipPath id="daab206e22"><path d="M 0.441406 0.875 L 292.398438 0.875 L 292.398438 286.382812 L 0.441406 286.382812 Z M 0.441406 0.875 " clip-rule="nonzero"/></clipPath><clipPath id="eed86f48ee"><path d="M 146.394531 0.875 C 65.785156 0.875 0.441406 64.789062 0.441406 143.628906 C 0.441406 222.46875 65.785156 286.382812 146.394531 286.382812 C 227.003906 286.382812 292.351562 222.46875 292.351562 143.628906 C 292.351562 64.789062 227.003906 0.875 146.394531 0.875 Z M 146.394531 0.875 " clip-rule="nonzero"/></clipPath><clipPath id="f230b8f022"><rect x="0" width="293" y="0" height="287"/></clipPath><clipPath id="27329a4699"><path d="M 134.183594 77.113281 L 354.953125 77.113281 L 354.953125 297.886719 L 134.183594 297.886719 Z M 134.183594 77.113281 " clip-rule="nonzero"/></clipPath><clipPath id="b5988a7514"><path d="M 244.566406 77.113281 C 183.605469 77.113281 134.183594 126.535156 134.183594 187.5 C 134.183594 248.464844 183.605469 297.886719 244.566406 297.886719 C 305.53125 297.886719 354.953125 248.464844 354.953125 187.5 C 354.953125 126.535156 305.53125 77.113281 244.566406 77.113281 Z M 244.566406 77.113281 " clip-rule="nonzero"/></clipPath><clipPath id="9324f176d7"><path d="M 0.183594 0.113281 L 220.953125 0.113281 L 220.953125 220.886719 L 0.183594 220.886719 Z M 0.183594 0.113281 " clip-rule="nonzero"/></clipPath><clipPath id="c2669626be"><path d="M 110.566406 0.113281 C 49.605469 0.113281 0.183594 49.535156 0.183594 110.5 C 0.183594 171.464844 49.605469 220.886719 110.566406 220.886719 C 171.53125 220.886719 220.953125 171.464844 220.953125 110.5 C 220.953125 49.535156 171.53125 0.113281 110.566406 0.113281 Z M 110.566406 0.113281 " clip-rule="nonzero"/></clipPath><clipPath id="31a7937491"><rect x="0" width="221" y="0" height="221"/></clipPath><clipPath id="3239045d39"><path d="M 178.714844 103.253906 L 347.210938 103.253906 L 347.210938 271.746094 L 178.714844 271.746094 Z M 178.714844 103.253906 " clip-rule="nonzero"/></clipPath><clipPath id="b7500cc9eb"><path d="M 262.960938 103.253906 C 216.433594 103.253906 178.714844 140.972656 178.714844 187.5 C 178.714844 234.027344 216.433594 271.746094 262.960938 271.746094 C 309.492188 271.746094 347.210938 234.027344 347.210938 187.5 C 347.210938 140.972656 309.492188 103.253906 262.960938 103.253906 Z M 262.960938 103.253906 " clip-rule="nonzero"/></clipPath><clipPath id="702479d5e6"><path d="M 0.714844 0.253906 L 169.210938 0.253906 L 169.210938 168.746094 L 0.714844 168.746094 Z M 0.714844 0.253906 " clip-rule="nonzero"/></clipPath><clipPath id="c3ee352d26"><path d="M 84.960938 0.253906 C 38.433594 0.253906 0.714844 37.972656 0.714844 84.5 C 0.714844 131.027344 38.433594 168.746094 84.960938 168.746094 C 131.492188 168.746094 169.210938 131.027344 169.210938 84.5 C 169.210938 37.972656 131.492188 0.253906 84.960938 0.253906 Z M 84.960938 0.253906 " clip-rule="nonzero"/></clipPath><clipPath id="1c18899abb"><rect x="0" width="170" y="0" height="169"/></clipPath></defs><g clip-path="url(#0e83e2ccbf)"><g transform="matrix(1, 0, 0, 1, 0, 0)"><g clip-path="url(#f762788f63)"><g clip-path="url(#208ea54681)"><g clip-path="url(#853d2c02c1)"><rect x="-82.5" width="540" fill="#545454" height="539.999987" y="-82.499998" fill-opacity="1"/></g></g></g></g></g><g clip-path="url(#c01b11b482)"><g clip-path="url(#b8ed9d781a)"><g transform="matrix(1, 0, 0, 1, 28, 22)"><g clip-path="url(#ce93b47154)"><g clip-path="url(#c9fa25de51)"><g clip-path="url(#e2c1ac4ff5)"><path fill="#0097b2" d="M 0.402344 0.65625 L 334.351562 0.65625 L 334.351562 334.605469 L 0.402344 334.605469 Z M 0.402344 0.65625 " fill-opacity="1" fill-rule="nonzero"/></g></g></g></g></g></g><g clip-path="url(#049c4e0fc5)"><g clip-path="url(#83223db2aa)"><g transform="matrix(1, 0, 0, 1, 70, 46)"><g clip-path="url(#f230b8f022)"><g clip-path="url(#daab206e22)"><g clip-path="url(#eed86f48ee)"><path fill="#ffffff" d="M 0.441406 0.875 L 292.640625 0.875 L 292.640625 286.382812 L 0.441406 286.382812 Z M 0.441406 0.875 " fill-opacity="1" fill-rule="nonzero"/></g></g></g></g></g></g><g clip-path="url(#27329a4699)"><g clip-path="url(#b5988a7514)"><g transform="matrix(1, 0, 0, 1, 134, 77)"><g clip-path="url(#31a7937491)"><g clip-path="url(#9324f176d7)"><g clip-path="url(#c2669626be)"><path fill="#f00707" d="M 0.183594 0.113281 L 220.953125 0.113281 L 220.953125 220.886719 L 0.183594 220.886719 Z M 0.183594 0.113281 " fill-opacity="1" fill-rule="nonzero"/></g></g></g></g></g></g><g clip-path="url(#3239045d39)"><g clip-path="url(#b7500cc9eb)"><g transform="matrix(1, 0, 0, 1, 178, 103)"><g clip-path="url(#1c18899abb)"><g clip-path="url(#702479d5e6)"><g clip-path="url(#c3ee352d26)"><path fill="#ffffff" d="M 0.714844 0.253906 L 169.210938 0.253906 L 169.210938 168.746094 L 0.714844 168.746094 Z M 0.714844 0.253906 " fill-opacity="1" fill-rule="nonzero"/></g></g></g></g></g></g></svg>