<svg xmlns="http://www.w3.org/2000/svg" xmlns:xlink="http://www.w3.org/1999/xlink" width="40" zoomAndPan="magnify" viewBox="0 0 30 30.000001" height="40" preserveAspectRatio="xMidYMid meet" version="1.2"><defs><clipPath id="e577498c23"><path d="M 2.914062 2.429688 L 27.085938 2.429688 L 27.085938 26.601562 L 2.914062 26.601562 Z M 2.914062 2.429688 "/></clipPath><clipPath id="5097d634dc"><path d="M 15 2.429688 C 8.324219 2.429688 2.914062 7.84375 2.914062 14.515625 C 2.914062 21.191406 8.324219 26.601562 15 26.601562 C 21.675781 26.601562 27.085938 21.191406 27.085938 14.515625 C 27.085938 7.84375 21.675781 2.429688 15 2.429688 Z M 15 2.429688 "/></clipPath><clipPath id="3d62605a5f"><path d="M 3.386719 2.902344 L 26.613281 2.902344 L 26.613281 26.128906 L 3.386719 26.128906 Z M 3.386719 2.902344 "/></clipPath><clipPath id="64e6e3cba1"><path d="M 6 4 L 26.613281 4 L 26.613281 26.128906 L 6 26.128906 Z M 6 4 "/></clipPath></defs><g id="f277218b21"><g clip-rule="nonzero" clip-path="url(#e577498c23)"><g clip-rule="nonzero" clip-path="url(#5097d634dc)"><path style=" stroke:none;fill-rule:nonzero;fill:#a6a6a6;fill-opacity:1;" d="M 2.914062 2.429688 L 27.085938 2.429688 L 27.085938 26.601562 L 2.914062 26.601562 Z M 2.914062 2.429688 "/></g></g><g clip-rule="nonzero" clip-path="url(#3d62605a5f)"><path style=" stroke:none;fill-rule:nonzero;fill:#f73140;fill-opacity:1;" d="M 26.613281 14.515625 C 26.613281 15.277344 26.539062 16.035156 26.390625 16.78125 C 26.242188 17.53125 26.019531 18.253906 25.730469 18.960938 C 25.4375 19.664062 25.078125 20.332031 24.65625 20.96875 C 24.230469 21.601562 23.75 22.1875 23.210938 22.726562 C 22.671875 23.265625 22.085938 23.75 21.453125 24.171875 C 20.816406 24.59375 20.148438 24.953125 19.445312 25.246094 C 18.738281 25.535156 18.011719 25.757812 17.265625 25.90625 C 16.519531 26.054688 15.761719 26.128906 15 26.128906 C 14.238281 26.128906 13.480469 26.054688 12.734375 25.90625 C 11.988281 25.757812 11.261719 25.535156 10.554688 25.246094 C 9.851562 24.953125 9.183594 24.59375 8.546875 24.171875 C 7.914062 23.75 7.328125 23.265625 6.789062 22.726562 C 6.25 22.1875 5.769531 21.601562 5.34375 20.96875 C 4.921875 20.332031 4.5625 19.664062 4.269531 18.960938 C 3.980469 18.253906 3.757812 17.53125 3.609375 16.78125 C 3.460938 16.035156 3.386719 15.277344 3.386719 14.515625 C 3.386719 13.753906 3.460938 13 3.609375 12.25 C 3.757812 11.503906 3.980469 10.777344 4.269531 10.070312 C 4.5625 9.367188 4.921875 8.699219 5.34375 8.0625 C 5.769531 7.429688 6.25 6.84375 6.789062 6.304688 C 7.328125 5.765625 7.914062 5.285156 8.546875 4.859375 C 9.183594 4.4375 9.851562 4.078125 10.554688 3.789062 C 11.261719 3.496094 11.988281 3.273438 12.734375 3.125 C 13.480469 2.976562 14.238281 2.902344 15 2.902344 C 15.761719 2.902344 16.519531 2.976562 17.265625 3.125 C 18.011719 3.273438 18.738281 3.496094 19.445312 3.789062 C 20.148438 4.078125 20.816406 4.4375 21.453125 4.859375 C 22.085938 5.285156 22.671875 5.765625 23.210938 6.304688 C 23.75 6.84375 24.230469 7.429688 24.65625 8.0625 C 25.078125 8.699219 25.4375 9.367188 25.730469 10.070312 C 26.019531 10.777344 26.242188 11.503906 26.390625 12.25 C 26.539062 13 26.613281 13.753906 26.613281 14.515625 Z M 26.613281 14.515625 "/></g><g clip-rule="nonzero" clip-path="url(#64e6e3cba1)"><path style=" stroke:none;fill-rule:nonzero;fill:#ff6d4d;fill-opacity:1;" d="M 26.613281 14.515625 C 26.613281 20.929688 21.414062 26.128906 15 26.128906 C 11.597656 26.128906 8.539062 24.667969 6.414062 22.335938 C 8.273438 23.597656 10.515625 24.332031 12.925781 24.332031 C 19.339844 24.332031 24.539062 19.132812 24.539062 12.71875 C 24.539062 9.707031 23.394531 6.964844 21.511719 4.902344 C 24.589844 6.988281 26.613281 10.515625 26.613281 14.515625 Z M 26.613281 14.515625 "/></g><path style=" stroke:none;fill-rule:nonzero;fill:#ffffff;fill-opacity:1;" d="M 11.863281 19.96875 C 11.511719 19.96875 11.214844 19.847656 10.960938 19.605469 C 10.695312 19.351562 10.5625 19.042969 10.566406 18.671875 L 10.566406 10.359375 C 10.5625 9.992188 10.695312 9.679688 10.960938 9.425781 C 11.214844 9.1875 11.511719 9.066406 11.863281 9.0625 C 12.09375 9.0625 12.308594 9.121094 12.507812 9.238281 L 19.707031 13.394531 C 20.140625 13.644531 20.355469 14.019531 20.355469 14.515625 C 20.355469 15.015625 20.140625 15.386719 19.707031 15.636719 L 12.507812 19.792969 C 12.308594 19.910156 12.09375 19.96875 11.863281 19.96875 Z M 11.863281 19.96875 "/></g></svg>